<?xml version="1.0" encoding="utf-8"?>
<!-- Generator: Adobe Illustrator 26.0.3, SVG Export Plug-In . SVG Version: 6.00 Build 0)  -->
<svg version="1.1" id="Layer_1" xmlns="http://www.w3.org/2000/svg" xmlns:xlink="http://www.w3.org/1999/xlink" x="0px" y="0px"
	 viewBox="0 0 1066 183" style="enable-background:new 0 0 1066 183;" xml:space="preserve">
<style type="text/css">
	.st0{fill-rule:evenodd;clip-rule:evenodd;fill:#f9f9f7}

</style>
<g class="st0">
	<g>
		<path d="M8.1,129c8.5,0,12.4-2,12.4-10.4V48.7c0-9.6-6.2-10.5-12.2-10.5v-4.9h44.5c32.7,0,51.7,21.9,51.7,50.2
			c0,28.2-19.6,50.7-51.7,50.7H8.1V129z M52.7,128.6c21.7,0,34.4-19.1,34.4-45c0-26-11.8-44.6-34.4-44.6h-17v82.2
			c0,5.2,2.6,7.5,7.6,7.5H52.7z"/>
		<path d="M135.3,48.4c0-9.9-6.3-10.2-12.2-10.2v-4.9h71.7c4.5,0,5.8,1.4,5.8,5.5v21.7h-5.2c0-12.7-4.3-21.4-17-21.4h-27.8v37.3
			h10.4c13.8,0,13-10.9,13-14.7h5.8v35.1h-5.8c0-5,0.6-15.1-13-15.1h-10.4v39.4c0,4.9,2.6,7.3,7.2,7.3H175
			c21.3,0,24.9-7.6,24.9-23.2h5.5V127c0,5.3-1.2,7.2-6.9,7.2h-75.6V129c5.5,0,12.4-0.9,12.4-11.9V48.4z"/>
		<path d="M266.1,134.2l-31.2-83c-3.2-8.2-4.5-13-15.8-13v-4.9h17.1c8.1,0,11.5,7.3,14.7,15.5l22.7,61.4l23.2-61.7
			c3.3-8.8-5.9-10.4-9.8-10.4v-4.9h30.8v4.9c-6.2,0-10.6,1.9-14.2,11.1l-32.1,84.9H266.1z"/>
		<path d="M339.2,134.2h-30.8V129c4.7,0,9.5,0.6,13.1-8.6l34.1-87.1h5.3l31.5,83.6c3.2,8.6,6.5,12.1,15.4,12.1v5.2h-42.2V129
			c7.5,0,15.3-2,11.5-11.7l-5.6-14.5H335l-7.1,18.3c-3.5,8.5,7.3,7.9,11.2,7.9V134.2z M353.6,55.5L337.3,97h32.1L353.6,55.5z"/>
		<path d="M424.8,134.2V129c6.6,0,12.4-1.3,12.4-9.2v-73c0-7.9-5.6-8.6-12.4-8.6v-4.9h44.3c21.4,0,31.2,11.1,31.2,24.5
			c0,9.6-6,22-23.9,24.6c20,6,14.8,46.5,34.8,46.5v5.3h-7.6c-8.8,0-12.4-1.6-15.8-4.7C476.2,118.6,476.3,84,455.9,84h-3.6v35
			c0,8.2,5.5,9.9,12.7,9.9v5.3H424.8z M452.3,79.1h10.2c16.8,0,22.4-12.8,22.4-21.4c0-10.2-6.9-19.4-19.3-19.4h-13.4V79.1z"/>
		<path d="M558.9,134.2h-30.8V129c4.7,0,9.5,0.6,13.1-8.6l34.1-87.1h5.3l31.5,83.6c3.2,8.6,6.5,12.1,15.4,12.1v5.2h-42.2V129
			c7.5,0,15.3-2,11.5-11.7l-5.6-14.5h-36.6l-7.1,18.3c-3.5,8.5,7.3,7.9,11.2,7.9V134.2z M573.3,55.5L557.1,97h32.1L573.3,55.5z"/>
		<path d="M677.1,134.2h-32.4V129c8.1,0,12.7-0.4,12.7-10.9V48.7c0-8.6-5.2-10.5-12.5-10.5v-4.9h16.8c5.2,0,9.8,2,13.8,7.5
			l48.2,65.6V48.7c0-9.5-4.7-10.5-12.5-10.5v-4.9h31.5v4.9c-7.1,0-12.1,0.9-12.1,10.8v85.2h-5l-61.3-82.7v66.6
			c0,10.6,5,10.8,12.8,10.8V134.2z"/>
		<path d="M782.3,134.2h-30.8V129c4.7,0,9.5,0.6,13.1-8.6l34.1-87.1h5.3l31.5,83.6c3.2,8.6,6.5,12.1,15.4,12.1v5.2h-42.2V129
			c7.5,0,15.3-2,11.5-11.7l-5.6-14.5h-36.6l-7.1,18.3c-3.5,8.5,7.3,7.9,11.2,7.9V134.2z M796.7,55.5L780.4,97h32.1L796.7,55.5z"/>
	</g>
	<g>
		<g>
			<g>
				<g>
					<g>
						<path class="st0" d="M1029.9,66.3c-0.2,0-0.3-0.2-0.4-0.3c-4.2-10.6-14.3-16.7-30.8-10.4c-0.3,0.1-0.7-0.1-0.7-0.5
							c0.1-12.7-7.7-28.7-9.1-37.1c-0.1-0.5-0.8-0.6-1-0.1c-2.6,7-4.3,11.6-5.1,18.2c-0.7,6.2,1.3,7-0.7,11.9
							c-4.2,10.9,3.3,15.9-1.3,16.9c-1.6,0.3-7.8-9.3-22.8-13.9c0,0-0.1,0-0.1,0c-11.9-6.7-14.5-12.8-23-16.8
							c-10.3-4.9-19.1-13-25.6-21.1c-0.7-0.8-1.9-0.1-1.6,0.9c1.1,2.8,18.3,41.6,21.6,48.1c6.1,12.1,5.9,11.1,11.3,18.5
							c6.4,8.8,14.2,15.5,14.8,15.9c0.2,0.1,0.3,0.4,0.2,0.7c-2.2,5-4.1,7.7-6.3,12.8c-4,9.4-4.7,14.7-8,20.7
							c-6.9,12.8-20.8,27.7-33.9,39.1c-0.5,0.4,0,1.2,0.6,0.9c27.4-14.8,30.9-26.3,36.9-28.2c0.3-0.1,0.7,0.1,0.7,0.4
							c-0.3,4.4-0.7,6.5-2,10c-0.2,0.6,0.4,1.1,0.8,0.6c7.1-7.7,16.4-19.7,24-24.8c4.9-3.4,8.8-3.7,13.9-5.9
							c30-13,18.8-27.1,32.6-41c5.3-5.4,6.6-4.4,14.1-8.7c0.1,0,0.2-0.1,0.3-0.1c2.4-0.4,8.4-1.5,14.3-2.6
							C1043.6,70.1,1035.3,67.9,1029.9,66.3z"/>
					</g>
				</g>
			</g>
		</g>
	</g>
	<path d="M1057.9,25.7c0,5.7-4.4,10.5-10.1,10.5c-5.6,0-10-4.7-10-10.4s4.4-10.5,10-10.5C1053.6,15.3,1057.9,20,1057.9,25.7z
		 M1056.3,25.7c0-4.7-3.6-8.6-8.3-8.6c-4.7,0-8.4,3.9-8.4,8.6s3.6,8.6,8.3,8.6C1052.6,34.4,1056.3,30.4,1056.3,25.7z M1050.1,27.2
		l2.3,3.5h-2l-1.9-3.1h-0.4h-2.3v3.1h-1.7V20.2h4c2.6,0,4.1,1.3,4.1,3.6C1052.2,25.4,1051.5,26.6,1050.1,27.2z M1048.1,26
		c1.5,0,2.5-0.8,2.5-2.2c0-1.4-0.9-2.1-2.5-2.1h-2.3V26H1048.1z"/>
</g>
</svg>
